<?xml version="1.0" encoding="UTF-8"?>
<svg width="1161" height="826" version="1.1" viewBox="0 0 1161 826" xmlns="http://www.w3.org/2000/svg"><g font-family="Helvetica, Arial, sans-serif" font-size="11" text-anchor="middle"><text x="75" y="8" dominant-baseline="middle">0</text><text x="145" y="8" dominant-baseline="middle">1</text><text x="215" y="8" dominant-baseline="middle">2</text><text x="285" y="8" dominant-baseline="middle">3</text><text x="355" y="8" dominant-baseline="middle">4</text><text x="425" y="8" dominant-baseline="middle">5</text><text x="495" y="8" dominant-baseline="middle">6</text><text x="565" y="8" dominant-baseline="middle">7</text><text x="635" y="8" dominant-baseline="middle">8</text><text x="705" y="8" dominant-baseline="middle">9</text><text x="775" y="8" dominant-baseline="middle">a</text><text x="845" y="8" dominant-baseline="middle">b</text><text x="915" y="8" dominant-baseline="middle">c</text><text x="985" y="8" dominant-baseline="middle">d</text><text x="1055" y="8" dominant-baseline="middle">e</text><text x="1125" y="8" dominant-baseline="middle">f</text></g><rect x="40" y="15" width="70" height="30" fill="#a0fafa"/><g stroke="#000"><line x1="40" x2="110" y1="15" y2="15"/><line x1="40" x2="110" y1="45" y2="45"/><line x1="110" x2="110" y1="15" y2="45"/><line x1="40" x2="40" y1="15" y2="45"/></g><text x="75" y="31" dominant-baseline="middle" font-family="Helvetica, Arial, sans-serif" font-size="10" text-anchor="middle">CEs</text><rect x="110" y="15" width="70" height="30" fill="#f4f4f4"/><g stroke="#000"><line x1="110" x2="180" y1="15" y2="15"/><line x1="110" x2="180" y1="45" y2="45"/><line x1="180" x2="180" y1="15" y2="45"/><line x1="110" x2="110" y1="15" y2="45"/></g><rect x="180" y="15" width="70" height="30" fill="#a0fafa"/><g stroke="#000"><line x1="180" x2="250" y1="15" y2="15"/><line x1="180" x2="250" y1="45" y2="45"/><line x1="250" x2="250" y1="15" y2="45"/><line x1="180" x2="180" y1="15" y2="45"/></g><text x="215" y="31" dominant-baseline="middle" font-family="Helvetica, Arial, sans-serif" font-size="10" text-anchor="middle">Channels</text><rect x="250" y="15" width="70" height="30" fill="#a0fafa"/><g stroke="#000"><line x1="250" x2="320" y1="15" y2="15"/><line x1="250" x2="320" y1="45" y2="45"/><line x1="320" x2="320" y1="15" y2="45"/><line x1="250" x2="250" y1="15" y2="45"/></g><text x="285" y="31" dominant-baseline="middle" font-family="Helvetica, Arial, sans-serif" font-size="10" text-anchor="middle">SRAM size</text><rect x="320" y="15" width="140" height="30" fill="#a0fafa"/><g stroke="#000"><line x1="320" x2="460" y1="15" y2="15"/><line x1="320" x2="460" y1="45" y2="45"/><line x1="460" x2="460" y1="15" y2="45"/><line x1="320" x2="320" y1="15" y2="45"/></g><text x="390" y="31" dominant-baseline="middle" font-family="Helvetica, Arial, sans-serif" font-size="10" text-anchor="middle">Pages/block</text><rect x="460" y="15" width="70" height="30" fill="#a0fafa"/><g stroke="#000"><line x1="460" x2="530" y1="15" y2="15"/><line x1="460" x2="530" y1="45" y2="45"/><line x1="530" x2="530" y1="15" y2="45"/><line x1="460" x2="460" y1="15" y2="45"/></g><text x="495" y="31" dominant-baseline="middle" font-family="Helvetica, Arial, sans-serif" font-size="10" text-anchor="middle">Dies/CE</text><rect x="530" y="15" width="630" height="30" fill="#f4f4f4"/><g stroke="#000"><line x1="530" x2="1160" y1="15" y2="15"/><line x1="530" x2="1160" y1="45" y2="45"/><line x1="1160" x2="1160" y1="15" y2="45"/><line x1="530" x2="530" y1="15" y2="45"/></g><text x="35" y="30" dominant-baseline="middle" font-family="Helvetica, Arial, sans-serif" font-size="11" text-anchor="end">00</text><text x="35" y="60" dominant-baseline="middle" font-family="Helvetica, Arial, sans-serif" font-size="11" text-anchor="end">10</text><rect x="40" y="45" width="280" height="30" fill="#a0fafa"/><g stroke="#000"><line x1="40" x2="320" y1="45" y2="45"/><line x1="40" x2="320" y1="75" y2="75"/><line x1="320" x2="320" y1="45" y2="75"/><line x1="40" x2="40" y1="45" y2="75"/></g><text x="180" y="61" dominant-baseline="middle" font-family="Helvetica, Arial, sans-serif" font-size="10" text-anchor="middle">Blocks/die</text><rect x="320" y="45" width="560" height="30" fill="#f4f4f4"/><g stroke="#000"><line x1="320" x2="880" y1="45" y2="45"/><line x1="320" x2="880" y1="75" y2="75"/><line x1="880" x2="880" y1="45" y2="75"/><line x1="320" x2="320" y1="45" y2="75"/></g><rect x="880" y="45" width="280" height="30" fill="#a0fafa"/><g stroke="#000"><line x1="880" x2="1160" y1="45" y2="45"/><line x1="880" x2="1160" y1="75" y2="75"/><line x1="1160" x2="1160" y1="45" y2="75"/><line x1="880" x2="880" y1="45" y2="75"/></g><text x="1020" y="61" dominant-baseline="middle" font-family="Helvetica, Arial, sans-serif" font-size="10" text-anchor="middle">Blocks/CE</text><text x="35" y="90" dominant-baseline="middle" font-family="Helvetica, Arial, sans-serif" font-size="11" text-anchor="end">20</text><rect x="40" y="75" width="560" height="30" fill="#f4f4f4"/><g stroke="#000"><line x1="40" x2="600" y1="75" y2="75"/><line x1="40" x2="600" y1="105" y2="105"/><line x1="600" x2="600" y1="75" y2="105"/><line x1="40" x2="40" y1="75" y2="105"/></g><rect x="600" y="75" width="280" height="30" fill="#a0fafa"/><g stroke="#000"><line x1="600" x2="880" y1="75" y2="75"/><line x1="600" x2="880" y1="105" y2="105"/><line x1="880" x2="880" y1="75" y2="105"/><line x1="600" x2="600" y1="75" y2="105"/></g><text x="740" y="91" dominant-baseline="middle" font-family="Helvetica, Arial, sans-serif" font-size="10" text-anchor="middle">Sectors/page</text><rect x="880" y="75" width="280" height="30" fill="#f4f4f4"/><g stroke="#000"><line x1="880" x2="1160" y1="75" y2="75"/><line x1="880" x2="1160" y1="105" y2="105"/><line x1="1160" x2="1160" y1="75" y2="105"/><line x1="880" x2="880" y1="75" y2="105"/></g><text x="35" y="120" dominant-baseline="middle" font-family="Helvetica, Arial, sans-serif" font-size="11" text-anchor="end">30</text><rect x="40" y="105" width="1120" height="30" fill="#f4f4f4"/><g stroke="#000"><line x1="40" x2="1160" y1="105" y2="105"/><line x1="40" x2="1160" y1="135" y2="135"/><line x1="1160" x2="1160" y1="105" y2="135"/><line x1="40" x2="40" y1="105" y2="135"/></g><text x="35" y="150" dominant-baseline="middle" font-family="Helvetica, Arial, sans-serif" font-size="11" text-anchor="end">40</text><rect x="40" y="135" width="630" height="30" fill="#f4f4f4"/><g stroke="#000"><line x1="40" x2="670" y1="135" y2="135"/><line x1="40" x2="670" y1="165" y2="165"/><line x1="670" x2="670" y1="135" y2="165"/><line x1="40" x2="40" y1="135" y2="165"/></g><rect x="670" y="135" width="70" height="30" fill="#a0fafa"/><g stroke="#000"><line x1="670" x2="740" y1="135" y2="135"/><line x1="670" x2="740" y1="165" y2="165"/><line x1="740" x2="740" y1="135" y2="165"/><line x1="670" x2="670" y1="135" y2="165"/></g><text x="705" y="151" dominant-baseline="middle" font-family="Helvetica, Arial, sans-serif" font-size="10" text-anchor="middle">Planes/die</text><rect x="740" y="135" width="70" height="30" fill="#f4f4f4"/><g stroke="#000"><line x1="740" x2="810" y1="135" y2="135"/><line x1="740" x2="810" y1="165" y2="165"/><line x1="810" x2="810" y1="135" y2="165"/><line x1="740" x2="740" y1="135" y2="165"/></g><rect x="810" y="135" width="70" height="30" fill="#a0ffa0"/><g stroke="#000"><line x1="810" x2="880" y1="135" y2="135"/><line x1="810" x2="880" y1="165" y2="165"/><line x1="880" x2="880" y1="135" y2="165"/><line x1="810" x2="810" y1="135" y2="165"/></g><text x="845" y="151" dominant-baseline="middle" font-family="Helvetica, Arial, sans-serif" font-size="10" text-anchor="middle">Form factor</text><rect x="880" y="135" width="280" height="30" fill="#f4f4f4"/><g stroke="#000"><line x1="880" x2="1160" y1="135" y2="135"/><line x1="880" x2="1160" y1="165" y2="165"/><line x1="1160" x2="1160" y1="135" y2="165"/><line x1="880" x2="880" y1="135" y2="165"/></g><text x="35" y="180" dominant-baseline="middle" font-family="Helvetica, Arial, sans-serif" font-size="11" text-anchor="end">50</text><rect x="40" y="165" width="1120" height="30" fill="#f4f4f4"/><g stroke="#000"><line x1="40" x2="1160" y1="165" y2="165"/><line x1="40" x2="1160" y1="195" y2="195"/><line x1="1160" x2="1160" y1="165" y2="195"/><line x1="40" x2="40" y1="165" y2="195"/></g><text x="35" y="210" dominant-baseline="middle" font-family="Helvetica, Arial, sans-serif" font-size="11" text-anchor="end">60</text><rect x="40" y="195" width="1120" height="30" fill="#f4f4f4"/><g stroke="#000"><line x1="40" x2="1160" y1="195" y2="195"/><line x1="40" x2="1160" y1="225" y2="225"/><line x1="1160" x2="1160" y1="195" y2="225"/><line x1="40" x2="40" y1="195" y2="225"/></g><text x="35" y="240" dominant-baseline="middle" font-family="Helvetica, Arial, sans-serif" font-size="11" text-anchor="end">70</text><rect x="40" y="225" width="1120" height="30" fill="#f4f4f4"/><g stroke="#000"><line x1="40" x2="1160" y1="225" y2="225"/><line x1="40" x2="1160" y1="255" y2="255"/><line x1="1160" x2="1160" y1="225" y2="255"/><line x1="40" x2="40" y1="225" y2="255"/></g><text x="35" y="270" dominant-baseline="middle" font-family="Helvetica, Arial, sans-serif" font-size="11" text-anchor="end">80</text><rect x="40" y="255" width="1120" height="30" fill="#f4f4f4"/><g stroke="#000"><line x1="40" x2="1160" y1="255" y2="255"/><line x1="40" x2="1160" y1="285" y2="285"/><line x1="1160" x2="1160" y1="255" y2="285"/><line x1="40" x2="40" y1="255" y2="285"/></g><text x="35" y="300" dominant-baseline="middle" font-family="Helvetica, Arial, sans-serif" font-size="11" text-anchor="end">90</text><rect x="40" y="285" width="1120" height="30" fill="#f4f4f4"/><g stroke="#000"><line x1="40" x2="1160" y1="285" y2="285"/><line x1="40" x2="1160" y1="315" y2="315"/><line x1="1160" x2="1160" y1="285" y2="315"/><line x1="40" x2="40" y1="285" y2="315"/></g><text x="35" y="330" dominant-baseline="middle" font-family="Helvetica, Arial, sans-serif" font-size="11" text-anchor="end">a0</text><rect x="40" y="315" width="1120" height="30" fill="#f4f4f4"/><g stroke="#000"><line x1="40" x2="1160" y1="315" y2="315"/><line x1="40" x2="1160" y1="345" y2="345"/><line x1="1160" x2="1160" y1="315" y2="345"/><line x1="40" x2="40" y1="315" y2="345"/></g><text x="35" y="360" dominant-baseline="middle" font-family="Helvetica, Arial, sans-serif" font-size="11" text-anchor="end">b0</text><rect x="40" y="345" width="1120" height="30" fill="#f4f4f4"/><g stroke="#000"><line x1="40" x2="1160" y1="345" y2="345"/><line x1="40" x2="1160" y1="375" y2="375"/><line x1="1160" x2="1160" y1="345" y2="375"/><line x1="40" x2="40" y1="345" y2="375"/></g><text x="35" y="390" dominant-baseline="middle" font-family="Helvetica, Arial, sans-serif" font-size="11" text-anchor="end">c0</text><rect x="40" y="375" width="560" height="30" fill="#f4f4f4"/><g stroke="#000"><line x1="40" x2="600" y1="375" y2="375"/><line x1="40" x2="600" y1="405" y2="405"/><line x1="600" x2="600" y1="375" y2="405"/><line x1="40" x2="40" y1="375" y2="405"/></g><rect x="600" y="375" width="70" height="30" fill="#a0fafa"/><g stroke="#000"><line x1="600" x2="670" y1="375" y2="375"/><line x1="600" x2="670" y1="405" y2="405"/><line x1="670" x2="670" y1="375" y2="405"/><line x1="600" x2="600" y1="375" y2="405"/></g><text x="635" y="391" dominant-baseline="middle" font-family="Helvetica, Arial, sans-serif" font-size="10" text-anchor="middle">Blocks/SB</text><rect x="670" y="375" width="210" height="30" fill="#f4f4f4"/><g stroke="#000"><line x1="670" x2="880" y1="375" y2="375"/><line x1="670" x2="880" y1="405" y2="405"/><line x1="880" x2="880" y1="375" y2="405"/><line x1="670" x2="670" y1="375" y2="405"/></g><rect x="880" y="375" width="140" height="30" fill="#a0fafa"/><g stroke="#000"><line x1="880" x2="1020" y1="375" y2="375"/><line x1="880" x2="1020" y1="405" y2="405"/><line x1="1020" x2="1020" y1="375" y2="405"/><line x1="880" x2="880" y1="375" y2="405"/></g><text x="950" y="391" dominant-baseline="middle" font-family="Helvetica, Arial, sans-serif" font-size="10" text-anchor="middle">Block address die stride</text><rect x="1020" y="375" width="140" height="30" fill="#f4f4f4"/><g stroke="#000"><line x1="1020" x2="1160" y1="375" y2="375"/><line x1="1020" x2="1160" y1="405" y2="405"/><line x1="1160" x2="1160" y1="375" y2="405"/><line x1="1020" x2="1020" y1="375" y2="405"/></g><text x="35" y="420" dominant-baseline="middle" font-family="Helvetica, Arial, sans-serif" font-size="11" text-anchor="end">d0</text><rect x="40" y="405" width="280" height="30" fill="#a0fafa"/><g stroke="#000"><line x1="40" x2="320" y1="405" y2="405"/><line x1="40" x2="320" y1="435" y2="435"/><line x1="320" x2="320" y1="405" y2="435"/><line x1="40" x2="40" y1="405" y2="435"/></g><text x="180" y="421" dominant-baseline="middle" font-family="Helvetica, Arial, sans-serif" font-size="10" text-anchor="middle">Superblock index count</text><rect x="320" y="405" width="280" height="30" fill="#a0fafa"/><g stroke="#000"><line x1="320" x2="600" y1="405" y2="405"/><line x1="320" x2="600" y1="435" y2="435"/><line x1="600" x2="600" y1="405" y2="435"/><line x1="320" x2="320" y1="405" y2="435"/></g><text x="460" y="421" dominant-baseline="middle" font-family="Helvetica, Arial, sans-serif" font-size="10" text-anchor="middle">Sectors/superblock</text><rect x="600" y="405" width="280" height="30" fill="#a0fafa"/><g stroke="#000"><line x1="600" x2="880" y1="405" y2="405"/><line x1="600" x2="880" y1="435" y2="435"/><line x1="880" x2="880" y1="405" y2="435"/><line x1="600" x2="600" y1="405" y2="435"/></g><text x="740" y="421" dominant-baseline="middle" font-family="Helvetica, Arial, sans-serif" font-size="10" text-anchor="middle">Superblock count</text><rect x="880" y="405" width="280" height="30" fill="#f4f4f4"/><g stroke="#000"><line x1="880" x2="1160" y1="405" y2="405"/><line x1="880" x2="1160" y1="435" y2="435"/><line x1="1160" x2="1160" y1="405" y2="435"/><line x1="880" x2="880" y1="405" y2="435"/></g><text x="35" y="450" dominant-baseline="middle" font-family="Helvetica, Arial, sans-serif" font-size="11" text-anchor="end">e0</text><rect x="40" y="435" width="1120" height="30" fill="#f4f4f4"/><g stroke="#000"><line x1="40" x2="1160" y1="435" y2="435"/><line x1="40" x2="1160" y1="465" y2="465"/><line x1="1160" x2="1160" y1="435" y2="465"/><line x1="40" x2="40" y1="435" y2="465"/></g><text x="35" y="480" dominant-baseline="middle" font-family="Helvetica, Arial, sans-serif" font-size="11" text-anchor="end">f0</text><rect x="40" y="465" width="280" height="30" fill="#a0fafa"/><g stroke="#000"><line x1="40" x2="320" y1="465" y2="465"/><line x1="40" x2="320" y1="495" y2="495"/><line x1="320" x2="320" y1="465" y2="495"/><line x1="40" x2="40" y1="465" y2="495"/></g><text x="180" y="481" dominant-baseline="middle" font-family="Helvetica, Arial, sans-serif" font-size="10" text-anchor="middle">Sectors/superblock page</text><rect x="320" y="465" width="70" height="30" fill="#a0fafa"/><g stroke="#000"><line x1="320" x2="390" y1="465" y2="465"/><line x1="320" x2="390" y1="495" y2="495"/><line x1="390" x2="390" y1="465" y2="495"/><line x1="320" x2="320" y1="465" y2="495"/></g><text x="355" y="481" dominant-baseline="middle" font-family="Helvetica, Arial, sans-serif" font-size="10px" text-anchor="middle">Flash interface</text><rect x="390" y="465" width="140" height="30" fill="#f4f4f4"/><g stroke="#000"><line x1="390" x2="530" y1="465" y2="465"/><line x1="390" x2="530" y1="495" y2="495"/><line x1="530" x2="530" y1="465" y2="495"/><line x1="390" x2="390" y1="465" y2="495"/></g><rect x="530" y="465" width="70" height="30" fill="#ffffa0"/><g stroke="#000"><line x1="530" x2="600" y1="465" y2="465"/><line x1="530" x2="600" y1="495" y2="495"/><line x1="600" x2="600" y1="465" y2="495"/><line x1="530" x2="530" y1="465" y2="495"/></g><text x="565" y="481" dominant-baseline="middle" font-family="Helvetica, Arial, sans-serif" font-size="10" text-anchor="middle">Protected</text><rect x="600" y="465" width="140" height="30" fill="#ffffa0"/><g stroke="#000"><line x1="600" x2="740" y1="465" y2="465"/><line x1="600" x2="740" y1="495" y2="495"/><line x1="740" x2="740" y1="465" y2="495"/><line x1="600" x2="600" y1="465" y2="495"/></g><text x="670" y="481" dominant-baseline="middle" font-family="Helvetica, Arial, sans-serif" font-size="10" text-anchor="middle">Firmware updates</text><rect x="740" y="465" width="140" height="30" fill="#ffffa0"/><g stroke="#000"><line x1="740" x2="880" y1="465" y2="465"/><line x1="740" x2="880" y1="495" y2="495"/><line x1="880" x2="880" y1="465" y2="495"/><line x1="740" x2="740" y1="465" y2="495"/></g><text x="810" y="481" dominant-baseline="middle" font-family="Helvetica, Arial, sans-serif" font-size="10" text-anchor="middle">System unit updates</text><rect x="880" y="465" width="280" height="30" fill="#f4f4f4"/><g stroke="#000"><line x1="880" x2="1160" y1="465" y2="465"/><line x1="880" x2="1160" y1="495" y2="495"/><line x1="1160" x2="1160" y1="465" y2="495"/><line x1="880" x2="880" y1="465" y2="495"/></g><text x="35" y="510" dominant-baseline="middle" font-family="Helvetica, Arial, sans-serif" font-size="11" text-anchor="end">100</text><rect x="40" y="495" width="1120" height="30" fill="#f4f4f4"/><g stroke="#000"><line x1="40" x2="1160" y1="495" y2="495"/><line x1="40" x2="1160" y1="525" y2="525"/><line x1="1160" x2="1160" y1="495" y2="525"/><line x1="40" x2="40" y1="495" y2="525"/></g><text x="35" y="540" dominant-baseline="middle" font-family="Helvetica, Arial, sans-serif" font-size="11" text-anchor="end">110</text><rect x="40" y="525" width="1120" height="30" fill="#f4f4f4"/><g stroke="#000"><line x1="40" x2="1160" y1="525" y2="525"/><line x1="40" x2="1160" y1="555" y2="555"/><line x1="1160" x2="1160" y1="525" y2="555"/><line x1="40" x2="40" y1="525" y2="555"/></g><text x="35" y="570" dominant-baseline="middle" font-family="Helvetica, Arial, sans-serif" font-size="11" text-anchor="end">120</text><rect x="40" y="555" width="1120" height="30" fill="#f4f4f4"/><g stroke="#000"><line x1="40" x2="1160" y1="555" y2="555"/><line x1="40" x2="1160" y1="585" y2="585"/><line x1="1160" x2="1160" y1="555" y2="585"/><line x1="40" x2="40" y1="555" y2="585"/></g><text x="35" y="600" dominant-baseline="middle" font-family="Helvetica, Arial, sans-serif" font-size="11" text-anchor="end">130</text><rect x="40" y="585" width="1120" height="30" fill="#f4f4f4"/><g stroke="#000"><line x1="40" x2="1160" y1="585" y2="585"/><line x1="40" x2="1160" y1="615" y2="615"/><line x1="1160" x2="1160" y1="585" y2="615"/><line x1="40" x2="40" y1="585" y2="615"/></g><text x="35" y="630" dominant-baseline="middle" font-family="Helvetica, Arial, sans-serif" font-size="11" text-anchor="end">140</text><rect x="40" y="615" width="560" height="30" fill="#f4f4f4"/><g stroke="#000"><line x1="40" x2="600" y1="615" y2="615"/><line x1="40" x2="600" y1="645" y2="645"/><line x1="600" x2="600" y1="615" y2="645"/><line x1="40" x2="40" y1="615" y2="645"/></g><rect x="600" y="615" width="560" height="30" fill="#a0fafa"/><g stroke="#000"><line x1="600" x2="1160" y1="615" y2="615"/><line x1="600" x2="1160" y1="645" y2="645"/><line x1="1160" x2="1160" y1="615" y2="645"/><line x1="600" x2="600" y1="615" y2="645"/></g><text x="880" y="631" dominant-baseline="middle" font-family="Helvetica, Arial, sans-serif" font-size="10" text-anchor="middle">CE bitmap</text><text x="35" y="660" dominant-baseline="middle" font-family="Helvetica, Arial, sans-serif" font-size="11" text-anchor="end">150</text><rect x="40" y="645" width="560" height="30" fill="#f4f4f4"/><g stroke="#000"><line x1="40" x2="600" y1="645" y2="645"/><line x1="40" x2="600" y1="675" y2="675"/><line x1="600" x2="600" y1="645" y2="675"/><line x1="40" x2="40" y1="645" y2="675"/></g><rect x="600" y="645" width="560" height="30" fill="#a0ffa0"/><g stroke="#000"><line x1="600" x2="1160" y1="645" y2="645"/><line x1="600" x2="1160" y1="675" y2="675"/><line x1="1160" x2="1160" y1="645" y2="675"/><line x1="600" x2="600" y1="645" y2="675"/></g><text x="880" y="661" dominant-baseline="middle" font-family="Helvetica, Arial, sans-serif" font-size="10" text-anchor="middle">Firmware version</text><text x="35" y="690" dominant-baseline="middle" font-family="Helvetica, Arial, sans-serif" font-size="11" text-anchor="end">160</text><rect x="40" y="675" width="630" height="30" fill="#a0ffa0"/><g stroke="#000"><line x1="40" x2="670" y1="675" y2="675"/><line x1="40" x2="670" y1="705" y2="705"/><line x1="670" x2="670" y1="675" y2="705"/><line x1="40" x2="40" y1="675" y2="705"/></g><text x="355" y="691" dominant-baseline="middle" font-family="Helvetica, Arial, sans-serif" font-size="10" text-anchor="middle">Firmware date</text><rect x="670" y="675" width="490" height="30" fill="#f4f4f4"/><g stroke="#000"><line x1="670" x2="1160" y1="675" y2="675"/><line x1="670" x2="1160" y1="705" y2="705"/><line x1="1160" x2="1160" y1="675" y2="705"/><line x1="670" x2="670" y1="675" y2="705"/></g><text x="35" y="720" dominant-baseline="middle" font-family="Helvetica, Arial, sans-serif" font-size="11" text-anchor="end">170</text><rect x="40" y="705" width="1120" height="30" fill="#f4f4f4"/><g stroke="#000"><line x1="40" x2="1160" y1="705" y2="705"/><line x1="40" x2="1160" y1="735" y2="735"/><line x1="1160" x2="1160" y1="705" y2="735"/><line x1="40" x2="40" y1="705" y2="735"/></g><text x="35" y="750" dominant-baseline="middle" font-family="Helvetica, Arial, sans-serif" font-size="11" text-anchor="end">180</text><rect x="40" y="735" width="1120" height="30" fill="#f4f4f4"/><g stroke="#000"><line x1="40" x2="1160" y1="735" y2="735"/><line x1="40" x2="1160" y1="765" y2="765"/><line x1="1160" x2="1160" y1="735" y2="765"/><line x1="40" x2="40" y1="735" y2="765"/></g><text x="35" y="780" dominant-baseline="middle" font-family="Helvetica, Arial, sans-serif" font-size="11" text-anchor="end">190</text><rect x="40" y="765" width="1120" height="30" fill="#f4f4f4"/><g stroke="#000"><line x1="40" x2="1160" y1="765" y2="765"/><line x1="40" x2="1160" y1="795" y2="795"/><line x1="1160" x2="1160" y1="765" y2="795"/><line x1="40" x2="40" y1="765" y2="795"/></g><text x="35" y="810" dominant-baseline="middle" font-family="Helvetica, Arial, sans-serif" font-size="11" text-anchor="end">1a0</text><rect x="40" y="795" width="140" height="30" fill="#f4f4f4"/><g stroke="#000"><line x1="40" x2="180" y1="795" y2="795"/><line x1="40" x2="180" y1="825" y2="825"/><line x1="180" x2="180" y1="795" y2="825"/><line x1="40" x2="40" y1="795" y2="825"/></g><rect x="180" y="795" width="140" height="30" fill="#a0fafa"/><g stroke="#000"><line x1="180" x2="320" y1="795" y2="795"/><line x1="180" x2="320" y1="825" y2="825"/><line x1="320" x2="320" y1="795" y2="825"/><line x1="180" x2="180" y1="795" y2="825"/></g><text x="250" y="811" dominant-baseline="middle" font-family="Helvetica, Arial, sans-serif" font-size="10" text-anchor="middle">Physical page size</text><rect x="320" y="795" width="280" height="30" fill="#f4f4f4"/><g stroke="#000"><line x1="320" x2="600" y1="795" y2="795"/><line x1="320" x2="600" y1="825" y2="825"/><line x1="600" x2="600" y1="795" y2="825"/><line x1="320" x2="320" y1="795" y2="825"/></g><rect x="600" y="795" width="140" height="30" fill="#ffb0a0"/><g stroke="#000"><line x1="600" x2="740" y1="795" y2="795"/><line x1="600" x2="740" y1="825" y2="825"/><line x1="740" x2="740" y1="795" y2="825"/><line x1="600" x2="600" y1="795" y2="825"/></g><text x="670" y="811" dominant-baseline="middle" font-family="Helvetica, Arial, sans-serif" font-size="10" text-anchor="middle">VUC key</text><rect x="740" y="795" width="70" height="30" fill="#ffb0a0"/><g stroke="#000"><line x1="740" x2="810" y1="795" y2="795"/><line x1="740" x2="810" y1="825" y2="825"/><line x1="810" x2="810" y1="795" y2="825"/><line x1="740" x2="740" y1="795" y2="825"/></g><text x="775" y="811" dominant-baseline="middle" font-family="Helvetica, Arial, sans-serif" font-size="10" text-anchor="middle">VUC mode</text><rect x="810" y="795" width="350" height="30" fill="#f4f4f4"/><g stroke="#000"><line x1="810" x2="1160" y1="795" y2="795"/><line x1="810" x2="1160" y1="825" y2="825"/><line x1="1160" x2="1160" y1="795" y2="825"/><line x1="810" x2="810" y1="795" y2="825"/><line x1="40" x2="1160" y1="795" y2="795"/></g></svg>
